<svg xmlns="http://www.w3.org/2000/svg" width="1100" height="450">
<rect x="0" y="0" width="1100" height="450" fill="#ffffff" />
<circle cx="80" cy="15" r="4" fill="#1b9e77" />
<text x="90" y="19" font-size="12">bucket</text>
<circle cx="80" cy="29" r="4" fill="#d95f02" />
<text x="90" y="33" font-size="12">large-d</text>
<circle cx="80" cy="43" r="4" fill="#7570b3" />
<text x="90" y="47" font-size="12">small-d</text>
<line x1="70" y1="40" x2="70" y2="400" stroke="#000" stroke-width="1" />
<line x1="70" y1="400" x2="1070" y2="400" stroke="#000" stroke-width="1" />
<text x="70" y="30" font-size="14">G1</text>
<line x1="70.0" y1="400" x2="70.0" y2="404" stroke="#000" stroke-width="1" />
<text x="70.0" y="416" font-size="10" text-anchor="middle">2^1</text>
<line x1="320.0" y1="400" x2="320.0" y2="404" stroke="#000" stroke-width="1" />
<text x="320.0" y="416" font-size="10" text-anchor="middle">2^2</text>
<line x1="570.0" y1="400" x2="570.0" y2="404" stroke="#000" stroke-width="1" />
<text x="570.0" y="416" font-size="10" text-anchor="middle">2^3</text>
<line x1="820.0" y1="400" x2="820.0" y2="404" stroke="#000" stroke-width="1" />
<text x="820.0" y="416" font-size="10" text-anchor="middle">2^4</text>
<line x1="1070.0" y1="400" x2="1070.0" y2="404" stroke="#000" stroke-width="1" />
<text x="1070.0" y="416" font-size="10" text-anchor="middle">2^5</text>
<line x1="66" y1="400.0" x2="70" y2="400.0" stroke="#000" stroke-width="1" />
<text x="62" y="404.0" font-size="10" text-anchor="end">10^5</text>
<line x1="66" y1="220.0" x2="70" y2="220.0" stroke="#000" stroke-width="1" />
<text x="62" y="224.0" font-size="10" text-anchor="end">10^6</text>
<line x1="66" y1="40.0" x2="70" y2="40.0" stroke="#000" stroke-width="1" />
<text x="62" y="44.0" font-size="10" text-anchor="end">10^7</text>
<path d="M 70.0,400.0 L 320.0,400.0 L 570.0,400.0 L 820.0,400.0 L 1070.0,400.0" fill="none" stroke="#1b9e77" stroke-width="2" />
<circle cx="70.0" cy="400.0" r="3" fill="#1b9e77" />
<circle cx="320.0" cy="400.0" r="3" fill="#1b9e77" />
<circle cx="570.0" cy="400.0" r="3" fill="#1b9e77" />
<circle cx="820.0" cy="400.0" r="3" fill="#1b9e77" />
<circle cx="1070.0" cy="400.0" r="3" fill="#1b9e77" />
<path d="M 70.0,400.0 L 320.0,400.0 L 570.0,400.0 L 820.0,400.0 L 1070.0,220.0" fill="none" stroke="#d95f02" stroke-width="2" />
<circle cx="70.0" cy="400.0" r="3" fill="#d95f02" />
<circle cx="320.0" cy="400.0" r="3" fill="#d95f02" />
<circle cx="570.0" cy="400.0" r="3" fill="#d95f02" />
<circle cx="820.0" cy="400.0" r="3" fill="#d95f02" />
<circle cx="1070.0" cy="220.0" r="3" fill="#d95f02" />
<path d="M 70.0,400.0 L 320.0,400.0 L 570.0,400.0 L 820.0,40.0" fill="none" stroke="#7570b3" stroke-width="2" />
<circle cx="70.0" cy="400.0" r="3" fill="#7570b3" />
<circle cx="320.0" cy="400.0" r="3" fill="#7570b3" />
<circle cx="570.0" cy="400.0" r="3" fill="#7570b3" />
<circle cx="820.0" cy="40.0" r="3" fill="#7570b3" />
<text x="570.0" y="432" font-size="12" text-anchor="middle">Points (d)</text>
<text x="30" y="220.0" font-size="12" text-anchor="middle" transform="rotate(-90 30 220.0)">ns/op</text>
</svg>