<svg xmlns="http://www.w3.org/2000/svg" width="1100" height="450">
<rect x="0" y="0" width="1100" height="450" fill="#ffffff" />
<circle cx="80" cy="15" r="4" fill="#1b9e77" />
<text x="90" y="19" font-size="12">bucket</text>
<circle cx="80" cy="29" r="4" fill="#d95f02" />
<text x="90" y="33" font-size="12">large-d</text>
<circle cx="80" cy="43" r="4" fill="#7570b3" />
<text x="90" y="47" font-size="12">small-d</text>
<line x1="70" y1="40" x2="70" y2="400" stroke="#000" stroke-width="1" />
<line x1="70" y1="400" x2="1070" y2="400" stroke="#000" stroke-width="1" />
<text x="70" y="30" font-size="14">G1</text>
<line x1="70.0" y1="400" x2="70.0" y2="404" stroke="#000" stroke-width="1" />
<text x="70.0" y="416" font-size="10" text-anchor="middle">2^1</text>
<line x1="115.45454545454545" y1="400" x2="115.45454545454545" y2="404" stroke="#000" stroke-width="1" />
<text x="115.45454545454545" y="416" font-size="10" text-anchor="middle">2^2</text>
<line x1="160.9090909090909" y1="400" x2="160.9090909090909" y2="404" stroke="#000" stroke-width="1" />
<text x="160.9090909090909" y="416" font-size="10" text-anchor="middle">2^3</text>
<line x1="206.36363636363637" y1="400" x2="206.36363636363637" y2="404" stroke="#000" stroke-width="1" />
<text x="206.36363636363637" y="416" font-size="10" text-anchor="middle">2^4</text>
<line x1="251.8181818181818" y1="400" x2="251.8181818181818" y2="404" stroke="#000" stroke-width="1" />
<text x="251.8181818181818" y="416" font-size="10" text-anchor="middle">2^5</text>
<line x1="297.27272727272725" y1="400" x2="297.27272727272725" y2="404" stroke="#000" stroke-width="1" />
<text x="297.27272727272725" y="416" font-size="10" text-anchor="middle">2^6</text>
<line x1="342.72727272727275" y1="400" x2="342.72727272727275" y2="404" stroke="#000" stroke-width="1" />
<text x="342.72727272727275" y="416" font-size="10" text-anchor="middle">2^7</text>
<line x1="388.1818181818182" y1="400" x2="388.1818181818182" y2="404" stroke="#000" stroke-width="1" />
<text x="388.1818181818182" y="416" font-size="10" text-anchor="middle">2^8</text>
<line x1="433.6363636363636" y1="400" x2="433.6363636363636" y2="404" stroke="#000" stroke-width="1" />
<text x="433.6363636363636" y="416" font-size="10" text-anchor="middle">2^9</text>
<line x1="479.09090909090907" y1="400" x2="479.09090909090907" y2="404" stroke="#000" stroke-width="1" />
<text x="479.09090909090907" y="416" font-size="10" text-anchor="middle">2^10</text>
<line x1="524.5454545454545" y1="400" x2="524.5454545454545" y2="404" stroke="#000" stroke-width="1" />
<text x="524.5454545454545" y="416" font-size="10" text-anchor="middle">2^11</text>
<line x1="570.0" y1="400" x2="570.0" y2="404" stroke="#000" stroke-width="1" />
<text x="570.0" y="416" font-size="10" text-anchor="middle">2^12</text>
<line x1="615.4545454545455" y1="400" x2="615.4545454545455" y2="404" stroke="#000" stroke-width="1" />
<text x="615.4545454545455" y="416" font-size="10" text-anchor="middle">2^13</text>
<line x1="660.9090909090909" y1="400" x2="660.9090909090909" y2="404" stroke="#000" stroke-width="1" />
<text x="660.9090909090909" y="416" font-size="10" text-anchor="middle">2^14</text>
<line x1="706.3636363636364" y1="400" x2="706.3636363636364" y2="404" stroke="#000" stroke-width="1" />
<text x="706.3636363636364" y="416" font-size="10" text-anchor="middle">2^15</text>
<line x1="751.8181818181819" y1="400" x2="751.8181818181819" y2="404" stroke="#000" stroke-width="1" />
<text x="751.8181818181819" y="416" font-size="10" text-anchor="middle">2^16</text>
<line x1="797.2727272727273" y1="400" x2="797.2727272727273" y2="404" stroke="#000" stroke-width="1" />
<text x="797.2727272727273" y="416" font-size="10" text-anchor="middle">2^17</text>
<line x1="842.7272727272727" y1="400" x2="842.7272727272727" y2="404" stroke="#000" stroke-width="1" />
<text x="842.7272727272727" y="416" font-size="10" text-anchor="middle">2^18</text>
<line x1="888.1818181818181" y1="400" x2="888.1818181818181" y2="404" stroke="#000" stroke-width="1" />
<text x="888.1818181818181" y="416" font-size="10" text-anchor="middle">2^19</text>
<line x1="933.6363636363636" y1="400" x2="933.6363636363636" y2="404" stroke="#000" stroke-width="1" />
<text x="933.6363636363636" y="416" font-size="10" text-anchor="middle">2^20</text>
<line x1="979.0909090909091" y1="400" x2="979.0909090909091" y2="404" stroke="#000" stroke-width="1" />
<text x="979.0909090909091" y="416" font-size="10" text-anchor="middle">2^21</text>
<line x1="1024.5454545454545" y1="400" x2="1024.5454545454545" y2="404" stroke="#000" stroke-width="1" />
<text x="1024.5454545454545" y="416" font-size="10" text-anchor="middle">2^22</text>
<line x1="1070.0" y1="400" x2="1070.0" y2="404" stroke="#000" stroke-width="1" />
<text x="1070.0" y="416" font-size="10" text-anchor="middle">2^23</text>
<line x1="66" y1="400.0" x2="70" y2="400.0" stroke="#000" stroke-width="1" />
<text x="62" y="404.0" font-size="10" text-anchor="end">10^5</text>
<line x1="66" y1="340.0" x2="70" y2="340.0" stroke="#000" stroke-width="1" />
<text x="62" y="344.0" font-size="10" text-anchor="end">10^6</text>
<line x1="66" y1="280.0" x2="70" y2="280.0" stroke="#000" stroke-width="1" />
<text x="62" y="284.0" font-size="10" text-anchor="end">10^7</text>
<line x1="66" y1="220.0" x2="70" y2="220.0" stroke="#000" stroke-width="1" />
<text x="62" y="224.0" font-size="10" text-anchor="end">10^8</text>
<line x1="66" y1="160.0" x2="70" y2="160.0" stroke="#000" stroke-width="1" />
<text x="62" y="164.0" font-size="10" text-anchor="end">10^9</text>
<line x1="66" y1="100.0" x2="70" y2="100.0" stroke="#000" stroke-width="1" />
<text x="62" y="104.0" font-size="10" text-anchor="end">10^10</text>
<line x1="66" y1="40.0" x2="70" y2="40.0" stroke="#000" stroke-width="1" />
<text x="62" y="44.0" font-size="10" text-anchor="end">10^11</text>
<path d="M 70.0,400.0 L 115.45454545454545,400.0 L 160.9090909090909,400.0 L 206.36363636363637,400.0 L 251.8181818181818,400.0 L 297.27272727272725,400.0 L 342.72727272727275,400.0 L 388.1818181818182,340.0 L 433.6363636363636,340.0 L 479.09090909090907,340.0 L 524.5454545454545,340.0 L 570.0,280.0 L 615.4545454545455,280.0 L 660.9090909090909,280.0 L 706.3636363636364,280.0 L 751.8181818181819,280.0 L 797.2727272727273,220.0 L 842.7272727272727,220.0 L 888.1818181818181,220.0 L 933.6363636363636,160.0 L 979.0909090909091,160.0 L 1024.5454545454545,160.0 L 1070.0,160.0" fill="none" stroke="#1b9e77" stroke-width="2" />
<circle cx="70.0" cy="400.0" r="3" fill="#1b9e77" />
<circle cx="115.45454545454545" cy="400.0" r="3" fill="#1b9e77" />
<circle cx="160.9090909090909" cy="400.0" r="3" fill="#1b9e77" />
<circle cx="206.36363636363637" cy="400.0" r="3" fill="#1b9e77" />
<circle cx="251.8181818181818" cy="400.0" r="3" fill="#1b9e77" />
<circle cx="297.27272727272725" cy="400.0" r="3" fill="#1b9e77" />
<circle cx="342.72727272727275" cy="400.0" r="3" fill="#1b9e77" />
<circle cx="388.1818181818182" cy="340.0" r="3" fill="#1b9e77" />
<circle cx="433.6363636363636" cy="340.0" r="3" fill="#1b9e77" />
<circle cx="479.09090909090907" cy="340.0" r="3" fill="#1b9e77" />
<circle cx="524.5454545454545" cy="340.0" r="3" fill="#1b9e77" />
<circle cx="570.0" cy="280.0" r="3" fill="#1b9e77" />
<circle cx="615.4545454545455" cy="280.0" r="3" fill="#1b9e77" />
<circle cx="660.9090909090909" cy="280.0" r="3" fill="#1b9e77" />
<circle cx="706.3636363636364" cy="280.0" r="3" fill="#1b9e77" />
<circle cx="751.8181818181819" cy="280.0" r="3" fill="#1b9e77" />
<circle cx="797.2727272727273" cy="220.0" r="3" fill="#1b9e77" />
<circle cx="842.7272727272727" cy="220.0" r="3" fill="#1b9e77" />
<circle cx="888.1818181818181" cy="220.0" r="3" fill="#1b9e77" />
<circle cx="933.6363636363636" cy="160.0" r="3" fill="#1b9e77" />
<circle cx="979.0909090909091" cy="160.0" r="3" fill="#1b9e77" />
<circle cx="1024.5454545454545" cy="160.0" r="3" fill="#1b9e77" />
<circle cx="1070.0" cy="160.0" r="3" fill="#1b9e77" />
<path d="M 70.0,400.0 L 115.45454545454545,400.0 L 160.9090909090909,400.0 L 206.36363636363637,400.0 L 251.8181818181818,340.0 L 297.27272727272725,340.0 L 342.72727272727275,340.0 L 388.1818181818182,280.0 L 433.6363636363636,280.0 L 479.09090909090907,280.0 L 524.5454545454545,220.0 L 570.0,220.0 L 615.4545454545455,220.0 L 660.9090909090909,220.0 L 706.3636363636364,160.0 L 751.8181818181819,160.0 L 797.2727272727273,160.0 L 842.7272727272727,100.0 L 888.1818181818181,100.0 L 933.6363636363636,100.0 L 979.0909090909091,40.0 L 1024.5454545454545,40.0" fill="none" stroke="#d95f02" stroke-width="2" />
<circle cx="70.0" cy="400.0" r="3" fill="#d95f02" />
<circle cx="115.45454545454545" cy="400.0" r="3" fill="#d95f02" />
<circle cx="160.9090909090909" cy="400.0" r="3" fill="#d95f02" />
<circle cx="206.36363636363637" cy="400.0" r="3" fill="#d95f02" />
<circle cx="251.8181818181818" cy="340.0" r="3" fill="#d95f02" />
<circle cx="297.27272727272725" cy="340.0" r="3" fill="#d95f02" />
<circle cx="342.72727272727275" cy="340.0" r="3" fill="#d95f02" />
<circle cx="388.1818181818182" cy="280.0" r="3" fill="#d95f02" />
<circle cx="433.6363636363636" cy="280.0" r="3" fill="#d95f02" />
<circle cx="479.09090909090907" cy="280.0" r="3" fill="#d95f02" />
<circle cx="524.5454545454545" cy="220.0" r="3" fill="#d95f02" />
<circle cx="570.0" cy="220.0" r="3" fill="#d95f02" />
<circle cx="615.4545454545455" cy="220.0" r="3" fill="#d95f02" />
<circle cx="660.9090909090909" cy="220.0" r="3" fill="#d95f02" />
<circle cx="706.3636363636364" cy="160.0" r="3" fill="#d95f02" />
<circle cx="751.8181818181819" cy="160.0" r="3" fill="#d95f02" />
<circle cx="797.2727272727273" cy="160.0" r="3" fill="#d95f02" />
<circle cx="842.7272727272727" cy="100.0" r="3" fill="#d95f02" />
<circle cx="888.1818181818181" cy="100.0" r="3" fill="#d95f02" />
<circle cx="933.6363636363636" cy="100.0" r="3" fill="#d95f02" />
<circle cx="979.0909090909091" cy="40.0" r="3" fill="#d95f02" />
<circle cx="1024.5454545454545" cy="40.0" r="3" fill="#d95f02" />
<path d="M 70.0,400.0 L 115.45454545454545,400.0 L 160.9090909090909,400.0 L 206.36363636363637,280.0" fill="none" stroke="#7570b3" stroke-width="2" />
<circle cx="70.0" cy="400.0" r="3" fill="#7570b3" />
<circle cx="115.45454545454545" cy="400.0" r="3" fill="#7570b3" />
<circle cx="160.9090909090909" cy="400.0" r="3" fill="#7570b3" />
<circle cx="206.36363636363637" cy="280.0" r="3" fill="#7570b3" />
<text x="570.0" y="432" font-size="12" text-anchor="middle">Points (d)</text>
<text x="30" y="220.0" font-size="12" text-anchor="middle" transform="rotate(-90 30 220.0)">ns/op</text>
</svg>